<svg width="1508" height="243" viewBox="0 0 1508 243" fill="none" xmlns="http://www.w3.org/2000/svg">
<path d="M1339.92 177.905C1336.01 170.642 1329.74 166.752 1321.12 166.752C1316.42 166.752 1311.72 167.789 1307.54 169.605C1301.27 171.939 1294.48 172.977 1287.69 172.977C1272.02 172.977 1260 168.308 1250.08 158.451C1240.42 148.854 1235.71 136.664 1235.71 121.36C1235.71 105.02 1240.42 92.3101 1249.3 83.2319C1258.44 74.1537 1269.67 69.7443 1283.51 69.7443C1291.35 69.7443 1298.14 70.7818 1304.14 72.8568C1308.84 74.4131 1312.5 75.1912 1315.64 75.1912C1323.99 75.1912 1330.78 71.3005 1335.22 63.7786C1337.31 59.8879 1338.36 55.9972 1338.36 52.1066C1338.36 43.5471 1332.87 36.5439 1322.43 30.5782C1312.5 25.3907 1299.7 22.7969 1283.77 22.7969C1252.17 22.7969 1227.36 32.1345 1209.86 50.8097C1192.36 69.2255 1183.48 93.0883 1183.48 121.36C1183.48 150.67 1192.88 174.792 1211.43 192.689C1229.71 210.846 1254.26 219.924 1284.03 219.924C1300.75 219.924 1315.37 216.811 1327.91 210.327C1337.84 205.399 1343.06 198.136 1343.06 188.799C1342.54 185.427 1341.75 181.795 1339.92 177.905Z" fill="white"/>
<path d="M1489.74 100.045C1477.24 88.6071 1459.01 82.8881 1435.06 82.8881C1430.89 82.8881 1426.72 83.1481 1422.56 83.408V47.5345C1422.56 41.0356 1420.21 35.3167 1415.27 30.8975C1410.58 26.4783 1404.59 24.1387 1397.56 24.1387C1390.53 24.1387 1384.54 26.4783 1379.85 30.8975C1375.16 35.5766 1372.56 41.0356 1372.56 47.5345V194.408C1372.56 200.907 1374.9 206.366 1379.33 211.045C1383.76 215.724 1389.48 218.064 1396.26 218.324C1401.46 218.324 1406.15 218.324 1410.58 218.584H1425.68C1451.46 218.584 1471.77 212.345 1486.1 199.867C1500.68 187.389 1507.97 170.232 1507.97 148.916C1508.49 127.86 1502.24 111.743 1489.74 100.045ZM1422.56 130.98C1428.02 130.2 1430.37 130.2 1431.15 130.2C1453.28 130.2 1455.89 141.378 1455.89 149.956C1455.89 164.514 1448.08 171.532 1430.89 171.532C1429.07 171.532 1426.2 171.272 1422.56 171.012V130.98Z" fill="white"/>
<path d="M148.757 26.1897C139.162 21.0033 126.196 18.4102 110.378 18.4102C79.2597 18.4102 54.6245 27.7456 37.2502 46.1571C29.73 54.196 23.7657 63.0128 19.6166 73.1261C19.3573 73.3855 19.3573 73.6448 19.3573 74.1634C17.5421 77.7939 15.9862 82.7209 15.2082 89.4632C13.1337 103.207 26.6182 114.876 40.6213 114.876C50.2161 114.876 58.5143 109.69 62.6633 101.91L65.7752 95.9461C66.2938 94.9088 66.8124 94.1309 67.3311 93.0936C69.6649 87.6479 72.7767 82.7209 76.6665 78.8311C85.7426 69.755 96.8932 65.3466 110.637 65.3466C118.417 65.3466 125.159 66.3839 131.123 68.4584C135.791 70.0143 139.421 70.7923 142.533 70.7923C150.831 70.7923 157.314 66.9025 161.723 59.3823C163.797 55.4926 164.834 51.6028 164.834 47.713C164.575 39.1556 159.389 32.154 148.757 26.1897Z" fill="#FF57B3"/>
<path d="M146.682 183.857C142.274 176.337 135.791 172.447 127.492 172.447C124.381 172.447 120.75 173.225 116.083 174.781C110.118 176.856 103.117 177.893 95.5964 177.893C81.8526 177.893 70.702 173.485 61.6258 164.408C57.4768 160.259 54.3649 155.592 52.2904 150.146C51.7718 149.109 51.5125 148.071 50.7345 147.293L47.6227 141.329C43.2143 133.55 34.9161 128.363 25.5807 128.363C11.5776 128.363 -1.64764 139.773 0.167586 153.776C1.20486 160.519 2.50144 165.446 4.31667 169.076C4.31667 169.335 4.57598 169.595 4.57598 170.113C8.72506 179.967 14.6894 189.044 22.2096 197.082C39.8432 214.975 64.4783 224.311 95.5964 224.311C111.155 224.311 124.121 221.718 133.975 216.531C144.348 210.826 149.794 203.565 149.794 195.267C149.794 191.637 148.757 187.747 146.682 183.857Z" fill="white"/>
<path d="M243.926 98.8013L245.481 95.4301C246 94.6522 246.259 94.1336 246.778 93.3556C249.112 88.6879 251.964 84.2795 255.595 80.6491C264.93 71.0543 276.6 66.6459 290.862 66.6459C304.865 66.6459 316.275 71.3136 325.87 80.9084C329.5 84.5388 332.612 88.9472 334.946 93.6149C335.465 94.6522 335.983 95.6895 336.761 96.7267L339.354 101.394C343.503 109.433 351.802 114.879 361.396 114.879C375.14 114.879 388.365 103.469 386.291 89.4658C385.772 85.0574 384.994 81.427 383.957 78.5745C383.438 76.5 382.92 74.1661 381.882 72.0916C377.215 62.7561 371.25 54.1987 363.471 46.9378C344.541 29.0449 320.165 19.9688 290.862 19.9688C261.3 19.9688 236.924 29.3042 218.253 47.975C211.252 54.9766 205.547 62.7561 201.138 71.0543C200.36 72.6102 199.842 74.1661 199.323 75.722C197.767 79.0931 196.73 83.5015 195.952 89.4658C194.137 103.21 207.103 114.879 220.846 114.879C231.219 114.879 240.295 108.137 243.926 98.8013Z" fill="white"/>
<path d="M376.959 128.1C367.364 128.1 359.066 133.545 354.917 141.584L352.324 146.252C351.546 147.289 351.027 148.326 350.508 149.364C348.175 154.031 345.322 158.44 341.432 162.07C331.838 171.665 320.168 176.333 306.424 176.333C291.903 176.333 280.493 171.665 271.157 162.33C267.527 158.699 264.674 154.291 262.34 149.623C262.081 148.845 261.562 148.067 261.044 147.548L259.488 144.177C255.857 134.842 246.781 128.1 236.149 128.1C222.406 128.1 209.18 139.51 211.255 153.513C212.033 159.218 213.07 163.626 214.626 167.257C215.145 168.812 215.663 170.368 216.441 171.924C220.85 180.222 226.555 188.002 233.556 195.004C252.227 213.674 276.603 223.01 306.165 223.01C335.468 223.01 359.844 213.934 378.774 196.041C386.554 188.78 392.777 180.222 397.186 170.887C398.223 168.812 399.001 166.738 399.26 164.404C400.297 161.292 401.075 157.921 401.594 153.513C403.668 139.51 390.703 128.1 376.959 128.1Z" fill="#FF57B3"/>
<path d="M839.319 195.009V168.04V120.325V94.3937V72.611C839.319 58.0892 827.909 46.4199 813.906 46.4199C808.46 46.4199 803.014 48.2351 798.865 51.6063C793.16 56.5333 790.308 62.7569 790.308 70.2771V218.866C790.308 225.349 792.641 231.054 797.05 235.722C801.458 240.389 807.163 242.723 813.387 242.723C827.649 242.723 839.059 230.795 839.059 216.014V195.009H839.319Z" fill="#FF57B3"/>
<path d="M928.005 17.8929C916.336 6.74225 897.924 0.777952 873.808 0C868.103 0.259317 863.176 2.59317 859.026 6.74225C854.618 11.1507 852.284 16.8556 852.284 23.0793C852.284 29.5622 854.618 35.0079 859.026 39.4163C863.176 43.5653 868.103 45.8992 873.808 46.1585C892.738 46.4178 895.072 56.2719 895.072 63.7921C895.072 70.275 893.256 74.9428 889.367 77.7952C885.477 81.1664 880.291 82.7223 874.067 82.7223H873.808C868.103 82.9816 863.176 85.3155 859.026 89.4645C854.618 93.8729 852.284 99.5779 852.284 105.802C852.284 112.284 854.618 117.73 859.026 122.139C863.176 126.288 868.103 128.621 873.808 128.881C874.326 128.881 874.845 128.881 875.364 128.881C896.887 128.881 914.261 122.398 926.968 109.951C939.934 97.5034 946.676 81.9443 946.676 64.0514C946.676 45.6399 940.452 30.0808 928.005 17.8929Z" fill="white"/>
<path d="M752.71 177.109C748.302 172.701 742.597 170.367 736.373 170.367H708.107C702.402 170.627 697.475 172.96 693.326 177.109C688.918 181.518 686.584 187.223 686.584 193.446C686.584 199.929 688.918 205.375 693.326 209.783C697.475 213.933 702.402 216.266 708.107 216.526H736.373C742.856 216.526 748.302 214.192 752.71 209.783C757.118 205.375 759.452 199.67 759.452 193.446C759.452 186.964 757.118 181.518 752.71 177.109Z" fill="white"/>
<path d="M661.169 170.109V143.918V97.7596V72.6058V51.8604C661.169 37.8572 649.759 26.4473 635.756 26.4473C630.31 26.4473 624.865 28.0032 620.716 31.6336C615.011 36.3013 612.158 42.525 612.158 49.7858V193.448C612.158 199.931 614.492 205.376 618.9 209.785C623.309 214.193 629.014 216.527 635.237 216.527C649.5 216.527 660.91 204.858 660.91 190.855V170.109H661.169Z" fill="#FF57B3"/>
<path d="M740.261 33.1895C735.852 28.7811 730.147 26.4473 723.924 26.4473H695.658C689.953 26.7066 685.026 29.0404 680.877 33.1895C676.469 37.5979 674.135 43.3029 674.135 49.5265C674.135 56.0095 676.469 61.4551 680.877 65.8635C685.026 70.0126 689.953 72.3465 695.658 72.6058H723.924C730.407 72.6058 735.852 70.2719 740.261 65.8635C744.669 61.4551 747.003 55.7501 747.003 49.5265C747.262 43.3029 744.928 37.8572 740.261 33.1895Z" fill="white"/>
<path d="M742.593 104.502C738.185 100.094 732.48 97.7598 726.256 97.7598H706.029C700.324 98.0191 695.397 100.353 691.248 104.502C686.84 108.91 684.506 114.615 684.506 120.839C684.506 127.322 686.84 132.768 691.248 137.176C695.397 141.325 700.324 143.659 706.029 143.918H726.256C732.739 143.918 738.185 141.584 742.593 137.176C747.001 132.768 749.335 127.063 749.335 120.839C749.335 114.615 747.001 109.17 742.593 104.502Z" fill="white"/>
<path d="M1026.55 132.509V46.9347C1026.55 40.4518 1024.21 35.0061 1019.54 30.5977C1014.88 26.1893 1008.91 23.8555 1002.17 23.8555C995.428 23.8555 989.464 26.1893 984.796 30.5977C980.129 35.0061 977.795 40.7111 977.795 46.9347V195.524C977.795 202.266 980.129 207.971 984.796 212.379C989.464 216.788 995.169 219.122 1002.43 219.122C1008.39 219.122 1013.58 217.566 1017.99 214.713C1023.69 210.823 1027.07 204.081 1027.07 197.08V132.509H1026.55Z" fill="#FF57B3"/>
<path d="M1149.98 30.3384C1145.57 25.93 1139.35 23.8555 1131.83 23.8555C1125.86 23.8555 1120.68 25.4114 1116.53 28.0045C1112.38 30.5977 1107.97 35.5248 1103.04 42.7856L1054.55 110.986L1049.62 117.728C1046.51 121.618 1044.7 126.286 1044.7 131.472C1044.7 143.401 1054.29 153.255 1066.22 153.255C1073.74 153.255 1080.22 149.365 1084.11 143.66L1084.63 142.882L1088 137.955L1091.63 132.769L1107.45 110.467V196.042C1107.45 202.525 1109.79 207.971 1114.45 212.379C1119.12 216.788 1125.09 219.122 1131.83 219.122C1138.57 219.122 1144.53 216.788 1149.2 212.379C1153.87 207.971 1156.2 202.266 1156.2 196.042V47.7127C1156.72 40.4518 1154.39 34.7468 1149.98 30.3384Z" fill="white"/>
<path d="M457.345 3.10742C450.084 3.10742 443.082 5.95991 438.414 11.1463C434.784 15.2953 432.969 20.4817 432.969 26.1867V169.589C432.969 176.072 435.303 181.777 439.452 186.186C443.86 190.853 449.306 193.187 455.789 193.446H456.048C470.051 194.224 481.72 183.074 481.72 169.071V27.4833C481.72 13.9988 470.829 3.10742 457.345 3.10742Z" fill="white"/>
<path d="M516.468 95.1683H546.548C553.031 95.1683 558.477 92.8344 562.886 88.426C567.294 84.0176 569.628 78.3126 569.628 72.089C569.628 65.8654 567.294 60.1604 562.886 55.752C558.477 51.3436 552.772 49.0098 546.548 49.0098H516.468C510.763 49.2691 505.836 51.6029 501.687 55.752C497.278 60.1604 494.944 65.8654 494.944 72.089C494.944 78.572 497.278 84.0176 501.687 88.426C505.836 92.3158 510.763 94.6497 516.468 95.1683Z" fill="#FF57B3"/>
<path d="M563.921 131.985C552.252 121.094 536.693 115.648 518.281 115.648C517.503 115.648 516.985 115.648 516.207 115.648H515.429C509.983 116.167 505.056 118.242 501.166 122.391C496.498 126.799 494.165 132.504 494.165 138.728C494.165 145.211 496.498 150.656 501.166 155.065C505.315 159.214 510.242 161.288 515.947 161.807C521.134 162.066 525.023 163.363 527.617 166.215C530.469 169.327 531.766 173.476 531.766 178.663C531.766 185.405 529.95 192.925 515.688 193.703C509.983 193.962 505.056 196.296 500.907 200.445C496.239 204.854 493.905 210.559 493.905 216.782C493.905 223.006 496.239 228.711 500.648 233.119C504.797 237.268 509.724 239.343 515.429 239.862C534.099 238.565 549.14 232.86 560.55 223.265C573.775 211.855 580.517 195.778 580.517 175.551C581.295 157.658 575.59 142.877 563.921 131.985Z" fill="#FF57B3"/>
</svg>
