<svg xmlns="http://www.w3.org/2000/svg" viewBox="0 0 176.81 145.64"><defs><style>.cls-1{fill:#fff;}</style></defs><title>Ресурс 1</title><g id="Слой_2" data-name="Слой 2"><g id="Слой_1-2" data-name="Слой 1"><polygon class="cls-1" points="176.79 120.12 176.79 24.32 135.16 24.32 135.16 0 44.54 0 44.54 24.32 0 24.32 0 120.12 0 120.12 0 120.12 0 120.22 0.06 120.22 7.37 132.88 14.73 145.64 22.1 132.88 29.41 120.22 29.53 120.22 36.84 132.88 44.21 145.64 51.58 132.88 58.89 120.22 59.02 120.22 66.33 132.88 73.7 145.64 81.06 132.88 88.37 120.22 88.48 120.22 95.79 132.88 103.15 145.64 110.52 132.88 117.83 120.22 117.95 120.22 125.26 132.88 132.62 145.64 139.99 132.88 147.3 120.22 147.4 120.22 154.71 132.88 162.08 145.64 169.44 132.88 176.75 120.22 176.79 120.22 176.79 120.16 176.81 120.12 176.79 120.12"/></g></g></svg>