<svg width="298" height="166" viewBox="0 0 298 166" fill="none" xmlns="http://www.w3.org/2000/svg">
<path d="M96.7747 82.6447C96.7747 113.992 76.8151 127.437 65.6368 127.437C58.0649 127.437 46.4637 121.268 39.7663 107.544H1.02817e-06C8.79604 141.019 34.8564 165.289 65.6368 165.289C103.642 165.289 134.452 128.288 134.452 82.6447C134.452 37.0013 103.642 0 65.6368 0C34.8564 0 8.79604 24.2702 0 57.7453H39.7663C46.4637 44.0218 58.0649 37.8525 65.6368 37.8525C76.8151 37.8525 96.7747 51.2978 96.7747 82.6447Z" fill="#FF57B3"/>
<rect x="106.892" y="65.1602" width="367.159" height="37.2396" fill="#8000D4"/>
<rect x="91.7627" y="52.9375" width="48.8769" height="61.678" rx="24.4385" fill="#8000D4"/>
</svg>
