<svg width="557" height="875" viewBox="0 0 557 875" fill="none" xmlns="http://www.w3.org/2000/svg">
<path d="M307.252 434.025H242.798V529.305H307.252V434.025Z" fill="#FF8947"/>
<path d="M505.549 0H51.3398V62.7722V191.567H114.898V75.5509H441.991V191.567H505.549V75.5509V0Z" fill="#8000D4"/>
<path d="M312.857 7.28711H310.391V75.4398H312.857V7.28711Z" fill="white"/>
<path d="M325.972 7.28711H323.506V75.4398H325.972V7.28711Z" fill="white"/>
<path d="M339.087 7.28711H336.621V75.4398H339.087V7.28711Z" fill="white"/>
<path d="M352.315 7.28711H349.849V75.4398H352.315V7.28711Z" fill="white"/>
<path d="M365.43 7.28711H362.964V75.4398H365.43V7.28711Z" fill="white"/>
<path d="M378.545 7.28711H376.079V75.4398H378.545V7.28711Z" fill="white"/>
<path d="M391.772 7.28711H389.306V75.4398H391.772V7.28711Z" fill="white"/>
<path d="M404.887 7.28711H402.421V75.4398H404.887V7.28711Z" fill="white"/>
<path d="M418.002 7.28711H415.536V75.4398H418.002V7.28711Z" fill="white"/>
<path d="M431.23 7.28711H428.764V75.4398H431.23V7.28711Z" fill="white"/>
<path d="M444.345 7.28711H441.879V75.4398H444.345V7.28711Z" fill="white"/>
<path d="M112.656 7.28711H110.189V75.4398H112.656V7.28711Z" fill="white"/>
<path d="M125.883 7.28711H123.417V75.4398H125.883V7.28711Z" fill="white"/>
<path d="M138.997 7.28711H136.531V75.4398H138.997V7.28711Z" fill="white"/>
<path d="M152.113 7.28711H149.646V75.4398H152.113V7.28711Z" fill="white"/>
<path d="M165.34 7.28711H162.874V75.4398H165.34V7.28711Z" fill="white"/>
<path d="M178.455 7.28711H175.989V75.4398H178.455V7.28711Z" fill="white"/>
<path d="M191.571 7.28711H189.104V75.4398H191.571V7.28711Z" fill="white"/>
<path d="M204.685 7.28711H202.219V75.4398H204.685V7.28711Z" fill="white"/>
<path d="M217.912 7.28711H215.446V75.4398H217.912V7.28711Z" fill="white"/>
<path d="M231.028 7.28711H228.562V75.4398H231.028V7.28711Z" fill="white"/>
<path d="M244.143 7.28711H241.677V75.4398H244.143V7.28711Z" fill="white"/>
<path d="M456.226 75.6621H97.5225V434.361H456.226V75.6621Z" fill="#FF8947"/>
<path d="M420.244 163.545L465.979 242.683L511.714 321.821H420.244H328.887L374.622 242.683L420.244 163.545Z" fill="white"/>
<path d="M420.693 207.373L446.811 252.547L472.817 297.72H420.693H368.568L394.687 252.547L420.693 207.373Z" fill="black"/>
<path d="M211.523 155.25H38.4482V186.3H211.523V155.25Z" fill="black"/>
<path d="M211.523 185.066H38.4482V216.116H211.523V185.066Z" fill="white"/>
<path d="M287.188 393.336H261.63V418.893H287.188V393.336Z" fill="white"/>
<path d="M325.748 393.336H300.19V418.893H325.748V393.336Z" fill="white"/>
<path d="M364.309 393.336H338.751V418.893H364.309V393.336Z" fill="white"/>
<path d="M402.869 393.336H377.312V418.893H402.869V393.336Z" fill="white"/>
<path d="M441.318 393.336H415.761V418.893H441.318V393.336Z" fill="white"/>
<path d="M111.759 136.753L99.204 111.196L70.9561 107.048L91.3573 87.2077L86.5373 59.0723L111.759 72.4114L136.98 59.0723L132.16 87.2077L152.561 107.048L124.425 111.196L111.759 136.753Z" fill="black"/>
<path d="M479.766 113.326H384.485V145.049H479.766V113.326Z" fill="black"/>
<path d="M240.78 179.797L221.611 211.071L261.853 196.163L276.874 228.894L291.783 196.163L332.137 211.071L312.969 179.797H240.78Z" fill="white"/>
<path d="M338.639 471.465H218.249L158.054 575.824L218.249 680.07H338.639L398.946 575.824L338.639 471.465Z" fill="#8000D4"/>
<path d="M557 678.949H0V875H557V678.949Z" fill="#8000D4"/>
</svg>
