<svg width="356" height="136" viewBox="0 0 356 136" fill="none" xmlns="http://www.w3.org/2000/svg">
<path d="M153.656 54.8426H197.848M57.7324 130.941H105.206C134.179 130.941 157.666 107.454 157.666 78.481V57.7432C157.666 28.7703 134.179 5.2832 105.206 5.2832H57.7324C28.7596 5.2832 5.27246 28.7704 5.27246 57.7432V78.4811C5.27246 107.454 28.7596 130.941 57.7324 130.941ZM250.229 130.941H297.703C326.676 130.941 350.163 107.454 350.163 78.481V57.7432C350.163 28.7703 326.676 5.2832 297.703 5.2832H250.23C221.257 5.2832 197.77 28.7704 197.77 57.7432V78.4811C197.77 107.454 221.257 130.941 250.229 130.941Z" stroke="#FF57B3" stroke-width="10"/>
</svg>
