<svg width="527" height="203" viewBox="0 0 527 203" fill="none" xmlns="http://www.w3.org/2000/svg">
<path d="M5.47168 166.308V36.5076C5.47168 19.4348 19.5102 5.40234 36.5904 5.40234H172.413C189.493 5.40234 203.531 19.4348 203.531 36.5076V166.308C203.531 183.38 189.493 197.413 172.413 197.413H36.5904C19.3932 197.413 5.47168 183.38 5.47168 166.308Z" stroke="#FF57B3" stroke-width="10" stroke-miterlimit="10"/>
<path d="M323.093 166.308V36.5076C323.093 19.4348 337.131 5.40234 354.211 5.40234H490.034C507.114 5.40234 521.153 19.4348 521.153 36.5076V166.308C521.153 183.38 507.114 197.413 490.034 197.413H354.211C337.131 197.413 323.093 183.38 323.093 166.308Z" stroke="#FF57B3" stroke-width="10" stroke-miterlimit="10"/>
<path d="M321.104 103.395H203.999V103.511H321.104V103.395Z" stroke="#FF57B3" stroke-width="10" stroke-miterlimit="10"/>
</svg>
