<svg width="203" height="110" viewBox="0 0 203 110" fill="none" xmlns="http://www.w3.org/2000/svg">
<path fill-rule="evenodd" clip-rule="evenodd" d="M0.966699 0.237745L202.017 0.237762C202.072 1.62057 202.1 3.01045 202.1 4.40688C202.1 60.8302 157.056 106.57 101.492 106.57C45.928 106.57 0.884449 60.8302 0.884454 4.40686C0.884454 3.01043 0.912042 1.62055 0.966699 0.237745Z" fill="#992FDE"/>
<ellipse cx="78.9086" cy="27.159" rx="20.0238" ry="26.9285" fill="white"/>
<ellipse cx="102.385" cy="85.8512" rx="20.0238" ry="23.4762" fill="white"/>
<ellipse cx="124.479" cy="27.159" rx="20.0238" ry="26.9285" fill="white"/>
<mask id="path-5-inside-1" fill="white">
<path fill-rule="evenodd" clip-rule="evenodd" d="M0.966699 0.237745L202.017 0.237762C202.072 1.62057 202.1 3.01045 202.1 4.40688C202.1 60.8302 157.056 106.57 101.492 106.57C45.928 106.57 0.884449 60.8302 0.884454 4.40686C0.884454 3.01043 0.912042 1.62055 0.966699 0.237745Z"/>
</mask>
<path d="M0.966699 0.237745L0.9667 -10.7623L-9.60711 -10.7623L-10.0247 -0.196705L0.966699 0.237745ZM202.017 0.237762L213.009 -0.196685L212.591 -10.7622L202.017 -10.7622L202.017 0.237762ZM0.966698 11.2377L202.017 11.2378L202.017 -10.7622L0.9667 -10.7623L0.966698 11.2377ZM191.026 0.67221C191.075 1.91032 191.1 3.15536 191.1 4.40687L213.1 4.40688C213.1 2.86555 213.069 1.33082 213.009 -0.196685L191.026 0.67221ZM191.1 4.40687C191.1 54.9148 150.822 95.5703 101.492 95.5703L101.492 117.57C163.29 117.57 213.1 66.7456 213.1 4.40688L191.1 4.40687ZM101.492 95.5703C52.1617 95.5703 11.8844 54.9148 11.8845 4.40686L-10.1155 4.40686C-10.1156 66.7455 39.6943 117.57 101.492 117.57L101.492 95.5703ZM11.8845 4.40686C11.8845 3.15533 11.9092 1.91028 11.9581 0.672194L-10.0247 -0.196705C-10.0851 1.33081 -10.1155 2.86554 -10.1155 4.40686L11.8845 4.40686Z" fill="#7420AB" mask="url(#path-5-inside-1)"/>
</svg>
