<svg width="192" height="113" viewBox="0 0 192 113" fill="none" xmlns="http://www.w3.org/2000/svg">
<path d="M135.093 109.769H56.4021C27.0332 109.769 3.04492 85.7815 3.04492 56.4131C3.04492 27.0446 27.0332 3.05664 56.4021 3.05664H135.093C164.462 3.05664 188.45 27.0446 188.45 56.4131C188.45 85.7815 164.462 109.769 135.093 109.769Z" fill="black"/>
<path d="M135.093 109.769H56.4021C27.0332 109.769 3.04492 85.7815 3.04492 56.4131C3.04492 27.0446 27.0332 3.05664 56.4021 3.05664H135.093C164.462 3.05664 188.45 27.0446 188.45 56.4131C188.45 85.7815 164.462 109.769 135.093 109.769Z" stroke="white" stroke-width="6" stroke-miterlimit="10"/>
<path d="M46.3138 34.4421C53.4333 34.4421 59.2047 27.5666 59.2047 19.0853C59.2047 10.604 53.4333 3.72852 46.3138 3.72852C39.1943 3.72852 33.4229 10.604 33.4229 19.0853C33.4229 27.5666 39.1943 34.4421 46.3138 34.4421Z" fill="white"/>
<path d="M79.2698 34.4421C86.3893 34.4421 92.1608 27.5666 92.1608 19.0853C92.1608 10.604 86.3893 3.72852 79.2698 3.72852C72.1504 3.72852 66.3789 10.604 66.3789 19.0853C66.3789 27.5666 72.1504 34.4421 79.2698 34.4421Z" fill="white"/>
<path d="M112.226 34.4421C119.345 34.4421 125.117 27.5666 125.117 19.0853C125.117 10.604 119.345 3.72852 112.226 3.72852C105.106 3.72852 99.335 10.604 99.335 19.0853C99.335 27.5666 105.106 34.4421 112.226 34.4421Z" fill="white"/>
<path d="M145.07 34.4421C152.189 34.4421 157.961 27.5666 157.961 19.0853C157.961 10.604 152.189 3.72852 145.07 3.72852C137.95 3.72852 132.179 10.604 132.179 19.0853C132.179 27.5666 137.95 34.4421 145.07 34.4421Z" fill="white"/>
<path d="M46.3138 109.208C53.4333 109.208 59.2047 102.332 59.2047 93.8509C59.2047 85.3696 53.4333 78.4941 46.3138 78.4941C39.1943 78.4941 33.4229 85.3696 33.4229 93.8509C33.4229 102.332 39.1943 109.208 46.3138 109.208Z" fill="white"/>
<path d="M79.2698 109.208C86.3893 109.208 92.1608 102.332 92.1608 93.8509C92.1608 85.3696 86.3893 78.4941 79.2698 78.4941C72.1504 78.4941 66.3789 85.3696 66.3789 93.8509C66.3789 102.332 72.1504 109.208 79.2698 109.208Z" fill="white"/>
<path d="M112.226 109.208C119.345 109.208 125.117 102.332 125.117 93.8509C125.117 85.3696 119.345 78.4941 112.226 78.4941C105.106 78.4941 99.335 85.3696 99.335 93.8509C99.335 102.332 105.106 109.208 112.226 109.208Z" fill="white"/>
<path d="M145.07 109.208C152.189 109.208 157.961 102.332 157.961 93.8509C157.961 85.3696 152.189 78.4941 145.07 78.4941C137.95 78.4941 132.179 85.3696 132.179 93.8509C132.179 102.332 137.95 109.208 145.07 109.208Z" fill="white"/>
</svg>
