<svg width="149" height="143" viewBox="0 0 149 143" fill="none" xmlns="http://www.w3.org/2000/svg">
<path d="M72.3191 1.87609C72.9149 0.0275512 75.5303 0.027554 76.1262 1.8761L92.1788 51.6764C92.4452 52.5027 93.2142 53.0628 94.0824 53.0628H146.064C147.997 53.0628 148.805 55.5339 147.245 56.6764L105.164 87.4946C104.469 88.0039 104.178 88.9014 104.442 89.7218L120.509 139.567C121.104 141.412 118.989 142.939 117.424 141.794L75.4043 111.02C74.7008 110.505 73.7445 110.505 73.0409 111.02L31.021 141.794C29.4567 142.939 27.3409 141.412 27.9358 139.567L44.0028 89.7218C44.2672 88.9014 43.9763 88.0039 43.281 87.4946L1.19991 56.6764C-0.360072 55.5339 0.448023 53.0628 2.38161 53.0628H54.3628C55.231 53.0628 56 52.5027 56.2664 51.6764L72.3191 1.87609Z" fill="#3ED37D"/>
</svg>
