<svg width="468" height="468" viewBox="0 0 468 468" fill="none" xmlns="http://www.w3.org/2000/svg">
<path d="M431.745 177.921C475.107 181.478 481.487 242.377 439.805 254.845C411.173 263.409 402.16 299.507 423.406 320.525C454.337 351.122 420.079 401.875 380.135 384.632C352.696 372.788 322.589 394.647 325.355 424.405C329.381 467.725 270.515 484.584 250.999 445.7C237.593 418.99 200.478 416.382 183.47 440.955C158.708 476.729 102.778 451.805 112.822 409.473C119.721 380.395 92.9659 354.541 64.1409 362.432C22.1779 373.92 -4.64667 318.876 30.2579 292.904C54.2344 275.063 50.3574 238.06 23.2038 225.576C-16.326 207.403 -1.49306 147.994 41.9398 150.535C71.7745 152.28 92.5899 121.442 79.8132 94.4251C61.213 55.0945 110.763 19.1191 142.401 48.9835C164.134 69.4977 199.902 59.254 207.481 30.3453C218.514 -11.7397 279.596 -7.44838 284.636 35.7658C288.098 65.4503 322.082 80.5944 346.47 63.3204C381.973 38.1731 426.006 80.7232 402.089 117.067C385.661 142.032 401.96 175.478 431.745 177.921Z" fill="#8000D4"/>
<path d="M246.89 352.321C181.217 359.202 122.481 311.773 115.638 246.46C108.795 181.148 156.425 122.574 222.097 115.694C287.77 108.813 346.506 156.242 353.349 221.554C360.192 286.867 312.562 345.44 246.89 352.321Z" fill="#FF57B3" stroke="white" stroke-width="15"/>
<path d="M238.559 272.503C217.611 274.697 198.677 259.285 196.433 237.871C194.189 216.458 209.518 197.455 230.466 195.26C251.413 193.065 270.348 208.478 272.592 229.892C274.835 251.305 259.506 270.308 238.559 272.503Z" stroke="white" stroke-width="15"/>
</svg>
