<svg width="469" height="463" viewBox="0 0 469 463" fill="none" xmlns="http://www.w3.org/2000/svg">
<path d="M195.643 32.066C203.699 -10.6887 264.932 -10.6887 272.988 32.0661C278.522 61.4349 313.484 74.1601 336.601 55.2194C370.255 27.6458 417.162 67.0053 395.851 104.936C381.212 130.991 399.815 163.212 429.699 163.562C473.203 164.072 483.836 224.374 443.13 239.732C415.168 250.282 408.707 286.922 431.374 306.399C464.373 334.753 433.757 387.782 392.702 373.382C364.501 363.49 335.999 387.406 340.844 416.896C347.897 459.828 290.357 480.77 268.164 443.349C252.919 417.644 215.713 417.644 200.468 443.349C178.274 480.77 120.735 459.828 127.787 416.896C132.632 387.405 104.13 363.49 75.9293 373.382C34.8745 387.782 4.25824 334.753 37.2568 306.399C59.924 286.922 53.4633 250.282 25.5016 239.732C-15.2047 224.374 -4.57175 164.072 38.9324 163.562C68.816 163.212 87.419 130.991 72.7803 104.936C51.4695 67.0053 98.3763 27.6458 132.03 55.2194C155.147 74.1601 190.109 61.4349 195.643 32.066Z" fill="#8000D4"/>
<path d="M353.423 242.006C353.423 308.038 300.131 361.513 234.461 361.513C168.791 361.513 115.5 308.038 115.5 242.006C115.5 175.974 168.791 122.5 234.461 122.5C300.131 122.5 353.423 175.974 353.423 242.006Z" fill="#FF57B3" stroke="white" stroke-width="15"/>
<path d="M273.839 242.549C273.839 263.612 256.537 280.837 235.007 280.837C213.476 280.837 196.174 263.612 196.174 242.549C196.174 221.487 213.476 204.262 235.007 204.262C256.537 204.262 273.839 221.487 273.839 242.549Z" stroke="white" stroke-width="15"/>
</svg>
