<svg width="849" height="978" viewBox="0 0 849 978" fill="none" xmlns="http://www.w3.org/2000/svg">
<path d="M313.529 244.293C323.118 193.402 396.003 193.402 405.592 244.293C412.179 279.251 453.794 294.397 481.31 271.852C521.368 239.032 577.201 285.881 551.835 331.029C534.411 362.042 556.554 400.395 592.124 400.812C643.906 401.418 656.563 473.196 608.11 491.476C574.828 504.033 567.138 547.647 594.118 570.83C633.396 604.58 596.954 667.7 548.087 650.559C514.519 638.785 480.594 667.251 486.36 702.353C494.755 753.454 426.266 778.383 399.849 733.841C381.704 703.244 337.418 703.244 319.272 733.841C292.855 778.383 224.366 753.455 232.761 702.353C238.527 667.251 204.602 638.785 171.034 650.559C122.167 667.7 85.7249 604.58 125.003 570.83C151.983 547.647 144.293 504.033 111.011 491.476C62.5583 473.196 75.2147 401.418 126.997 400.812C162.568 400.395 184.711 362.042 167.286 331.029C141.92 285.881 197.753 239.032 237.811 271.852C265.327 294.397 306.942 279.251 313.529 244.293Z" fill="#FF8947"/>
<path d="M500.638 487.272C500.638 566.652 436.573 630.947 357.612 630.947C278.651 630.947 214.586 566.652 214.586 487.272C214.586 407.893 278.651 343.598 357.612 343.598C436.573 343.598 500.638 407.893 500.638 487.272Z" fill="#FF57B3" stroke="white" stroke-width="15"/>
<path d="M405.912 487.907C405.912 513.781 384.663 534.908 358.263 534.908C331.863 534.908 310.613 513.781 310.613 487.907C310.613 462.033 331.863 440.906 358.263 440.906C384.663 440.906 405.912 462.033 405.912 487.907Z" stroke="white" stroke-width="15"/>
</svg>
