<svg width="682" height="683" viewBox="0 0 682 683" fill="none" xmlns="http://www.w3.org/2000/svg">
<path d="M214.744 500.553C176.994 522.181 137.242 475.607 164.532 441.723C183.278 418.447 170.259 383.593 140.845 378.306C98.024 370.609 97.5097 309.379 140.195 300.964C169.517 295.184 181.948 260.116 162.813 237.159C134.958 203.738 173.922 156.502 212.03 177.493C238.207 191.913 270.271 173.04 270.37 143.154C270.514 99.6474 330.725 88.5084 346.425 129.084C357.209 156.956 393.902 163.109 413.188 140.279C441.264 107.043 494.549 137.213 480.493 178.388C470.839 206.671 494.993 234.97 524.441 229.878C567.312 222.465 588.738 279.827 551.505 302.334C525.928 317.794 526.241 354.999 552.073 370.027C589.679 391.906 569.22 449.619 526.231 442.927C496.701 438.331 473.026 467.032 483.154 495.149C497.899 536.081 445.129 567.142 416.499 534.383C396.832 511.88 360.247 518.648 349.932 546.697C334.917 587.531 274.527 577.405 273.652 533.907C273.051 504.027 240.675 485.696 214.744 500.553Z" fill="#FF8947"/>
<path d="M264.373 250.578C314.598 207.71 389.868 213.529 432.501 263.478C475.134 313.428 469.057 388.678 418.832 431.546C368.607 474.414 293.337 468.595 250.704 418.645C208.071 368.695 214.148 293.446 264.373 250.578Z" fill="#FF57B3" stroke="white" stroke-width="15"/>
<path d="M316.448 311.637C332.468 297.963 356.803 299.941 370.78 316.317C384.758 332.694 382.888 357.037 366.868 370.711C350.848 384.384 326.513 382.407 312.536 366.03C298.558 349.653 300.427 325.31 316.448 311.637Z" stroke="white" stroke-width="15"/>
</svg>
